HIERARCHY
ROOT RootJoint
{
    OFFSET   0.000000   0.000000   0.000000
    CHANNELS 6 Xposition Yposition Zposition Xrotation Yrotation Zrotation
    JOINT pelvis_lowerback
    {
        OFFSET   0.000000   0.093605   0.000000
        CHANNELS 3 Xrotation Yrotation Zrotation
        JOINT lowerback_torso
        {
            OFFSET   0.000000   0.100000   0.000000
            CHANNELS 3 Xrotation Yrotation Zrotation
            JOINT torso_head
            {
                OFFSET   0.000000   0.282350   0.000000
                CHANNELS 3 Xrotation Yrotation Zrotation
                End Site
                {
                    OFFSET   0.000000   0.192650   0.000000
                }
            }
            JOINT rTorso_Clavicle
            {
                OFFSET  -0.001000   0.157500   0.000000
                CHANNELS 3 Xrotation Yrotation Zrotation
                JOINT rShoulder
                {
                    OFFSET  -0.117647   0.000000   0.000000
                    CHANNELS 3 Xrotation Yrotation Zrotation
                    JOINT rElbow
                    {
                        OFFSET  -0.245000   0.000000   0.000000
                        CHANNELS 3 Xrotation Yrotation Zrotation
                        JOINT rWrist
                        {
                            OFFSET  -0.240000   0.000000   0.000000
                            CHANNELS 3 Xrotation Yrotation Zrotation
                            End Site
                            {
                                OFFSET  -0.116353  -0.002500   0.000000
                            }
                        }
                    }
                }
            }
            JOINT lTorso_Clavicle
            {
                OFFSET   0.001000   0.157500   0.000000
                CHANNELS 3 Xrotation Yrotation Zrotation
                JOINT lShoulder
                {
                    OFFSET   0.117647   0.000000   0.000000
                    CHANNELS 3 Xrotation Yrotation Zrotation
                    JOINT lElbow
                    {
                        OFFSET   0.245000   0.000000   0.000000
                        CHANNELS 3 Xrotation Yrotation Zrotation
                        JOINT lWrist
                        {
                            OFFSET   0.240000   0.000000   0.000000
                            CHANNELS 3 Xrotation Yrotation Zrotation
                            End Site
                            {
                                OFFSET   0.116353  -0.002500   0.000000
                            }
                        }
                    }
                }
            }
        }
    }
    JOINT rHip
    {
        OFFSET  -0.100000  -0.051395   0.000000
        CHANNELS 3 Xrotation Yrotation Zrotation
        JOINT rKnee
        {
            OFFSET   0.000000  -0.410000   0.000000
            CHANNELS 3 Xrotation Yrotation Zrotation
            JOINT rAnkle
            {
                OFFSET   0.000000  -0.390000   0.000000
                CHANNELS 3 Xrotation Yrotation Zrotation
                JOINT rToeJoint
                {
                    OFFSET   0.000000  -0.050000   0.130000
                    CHANNELS 3 Xrotation Yrotation Zrotation
                    End Site
                    {
                        OFFSET  -0.010000   0.002000   0.060000
                    }
                }
            }
        }
    }
    JOINT lHip
    {
        OFFSET   0.100000  -0.051395   0.000000
        CHANNELS 3 Xrotation Yrotation Zrotation
        JOINT lKnee
        {
            OFFSET   0.000000  -0.410000   0.000000
            CHANNELS 3 Xrotation Yrotation Zrotation
            JOINT lAnkle
            {
                OFFSET   0.000000  -0.390000   0.000000
                CHANNELS 3 Xrotation Yrotation Zrotation
                JOINT lToeJoint
                {
                    OFFSET   0.000000  -0.050000   0.130000
                    CHANNELS 3 Xrotation Yrotation Zrotation
                    End Site
                    {
                        OFFSET   0.010000   0.002000   0.060000
                    }
                }
            }
        }
    }
}
MOTION
Frames: 17
Frame Time:   0.008333
 -2.376719   0.925631   3.975860   0.000000   0.000000   0.000000   0.000000   0.000000   0.000000   0.000000   0.000000   0.000000   0.000000   0.000000   0.000000   0.000000   0.000000   0.000000   0.000000   0.000000   0.000000   0.000000   0.000000   0.000000   0.000000   0.000000   0.000000   0.000000   0.000000   0.000000   0.000000   0.000000   0.000000   0.000000   0.000000   0.000000   0.000000   0.000000   0.000000   0.000000   0.000000   0.000000   0.000000   0.000000   0.000000   0.000000   0.000000   0.000000   0.000000   0.000000   0.000000   0.000000   0.000000   0.000000   0.000000   0.000000   0.000000   0.000000   0.000000   0.000000   0.000000   0.000000   0.000000
 -2.376380   0.925111   3.973821  -0.483016  -0.464861   0.217844   0.798567   0.181515  -0.133054   0.063756  -0.150278  -0.165807   0.045189   0.083129   0.054323  -0.317067  -0.085381  -0.773765  -0.994385   0.996733   2.076024   0.034690   3.347301   0.025647  -0.269091  -2.532414  -0.986505  -0.579492   0.238625   0.660740  -2.306535   0.444814  -1.692442   0.031764  -3.470986  -0.075206  -0.280102   1.795497   1.491946  -0.529254   0.298899  -0.541095   2.584399   0.007265  -0.004018  -1.650813  -0.205363   0.068705   0.150409   0.000340  -0.000488  -0.559218   0.713738  -0.025491   2.721909  -0.004266   0.006005  -1.703922   0.583907  -0.109373  -0.067095   0.000047  -0.000486
 -2.375984   0.924245   3.971173  -1.164085  -1.096513   0.457576   1.670715   0.410940  -0.279452   0.297019  -0.205011  -0.358761   0.146249   0.148293   0.095895  -0.613176   0.228492  -1.211901  -1.987434   2.268078   4.291364   0.076261   6.912386   0.043669  -0.566000  -3.809805  -1.461845  -1.136122   0.230293   0.984962  -4.478547   0.696565  -3.510027   0.066035  -7.100566  -0.132522  -0.638689   2.559163   2.529250  -0.926867   0.573557  -1.332219   5.300251   0.018220  -0.013282  -3.177496  -0.406554   0.126574   0.287659   0.000867  -0.001086  -1.071863   1.418534   0.147327   5.598381  -0.012766   0.007588  -3.278619   1.146064  -0.189148  -0.140011   0.000237  -0.000795
 -2.375583   0.922848   3.968133  -1.883799  -1.786580   0.685181   2.533663   0.673155  -0.425175   0.571754  -0.195025  -0.552914   0.238322   0.206267   0.131879  -0.881173   0.801150  -1.412593  -2.979044   3.635239   6.538065   0.117349  10.567420   0.055677  -0.842016  -4.411824  -1.569417  -1.651121   0.018076   1.062803  -6.506158   0.836519  -5.367370   0.097375 -10.798026  -0.174268  -0.980883   2.819778   3.163952  -1.251282   0.823540  -2.293717   7.878179   0.029362  -0.023818  -4.598221  -0.600868   0.174027   0.425403   0.001505  -0.001702  -1.600917   2.076882   0.517724   8.319963  -0.023172   0.007720  -4.743332   1.675530  -0.245787  -0.195051   0.000433  -0.000888
 -2.375420   0.921851   3.964721  -2.679983  -2.551314   0.800897   3.459777   0.980325  -0.525310   0.895649  -0.123182  -0.711386   0.310604   0.260732   0.168615  -1.123319   1.550519  -1.385611  -3.970022   5.029468   8.801785   0.157975  14.279407   0.061295  -1.099185  -4.623215  -1.441367  -2.129139  -0.330204   0.915610  -8.397698   0.922242  -7.245297   0.126853 -14.536114  -0.202046  -1.303538   2.809866   3.526585  -1.747622   1.007523  -2.921032  10.116984   0.030730  -0.033948  -5.870077  -0.778466   0.380575   0.019920   0.000240   0.001620  -2.091916   2.686094   1.157072  10.853559  -0.034091   0.006906  -6.107155   2.174543  -0.282258  -0.225175   0.000523  -0.000817
 -2.375109   0.920741   3.961285  -3.523070  -3.295519   0.997488   4.390642   1.283006  -0.693648   1.259076  -0.031645  -0.902756   0.374868   0.311043   0.199382  -1.340776   2.393610  -1.250523  -4.955679   6.396769  11.032646   0.193321  18.028062   0.062995  -1.342508  -4.599033  -1.101379  -2.570712  -0.766479   0.658204 -10.158281   0.984756  -9.096897   0.150064 -18.300287  -0.220312  -1.609377   2.645561   3.637114  -2.252358   1.129668  -3.613996  12.295576   0.030180  -0.043065  -7.056076  -1.006587   0.506600   0.173548   0.000627   0.000011  -2.555203   3.247702   1.802583  13.209470  -0.043427   0.007337  -7.381245   2.642046  -0.303477  -0.259058   0.000645  -0.000766
 -2.374659   0.919442   3.957980  -4.377916  -3.977958   1.249176   5.299390   1.567032  -0.893273   1.637320   0.059962  -1.116296   0.430628   0.357596   0.224688  -1.538195   3.275411  -1.054828  -5.931387   7.703679  13.196913   0.222320  21.799287   0.062410  -1.574769  -4.437542  -0.642230  -2.979557  -1.254680   0.329682 -11.795117   1.043846 -10.894919   0.165869 -22.081693  -0.232209  -1.900606   2.390727   3.580475  -2.712862   1.222155  -4.307273  14.419843   0.027710  -0.049615  -8.139703  -1.228051   0.630607   0.315634   0.000808  -0.001156  -3.020491   3.766052   2.472201  15.395629  -0.050898   0.009465  -8.571631   3.079139  -0.313107  -0.295098   0.000780  -0.000741
 -2.374189   0.917198   3.954723  -4.802962  -4.682061   1.416515   5.734207   1.792665  -0.974326   1.920262   0.200866  -1.284573   0.536756   0.409377   0.333447  -1.698353   3.976882  -1.182989  -6.649409   9.228302  15.562011   0.246939  25.597244   0.052778  -1.850625  -4.177634  -0.138241  -3.302103  -1.564634   0.150550 -13.939311   1.228391 -12.954515   0.167122 -25.878691  -0.265514  -2.227593   2.099727   3.489025  -3.801106   1.443979  -4.942716  17.071428   0.027552  -0.057567  -9.477639  -1.432123   0.563764   0.334954   0.000730  -0.001071  -3.729645   4.381815   3.352752  16.837243  -0.052149   0.011807  -9.284612   3.637496  -0.436347  -0.144247  -0.000441   0.000247
 -2.373728   0.914445   3.951673  -5.218660  -5.318870   1.526668   6.164052   1.986485  -1.005071   2.173957   0.332624  -1.417102   0.625358   0.455628   0.454771  -1.842847   4.662573  -1.303355  -7.378813  10.651954  17.803355   0.264366  29.407243   0.044365  -2.112400  -3.854143   0.402442  -3.600535  -1.866643  -0.070316 -15.927517   1.471151 -14.909984   0.159899 -29.675307  -0.290927  -2.564488   1.821147   3.366518  -4.930239   1.604100  -5.471727  19.625648   0.025244  -0.063532 -10.695876  -1.652148   0.551954   0.355381   0.000652  -0.001018  -4.392827   4.937110   4.349534  18.075894  -0.051891   0.013775  -9.950014   4.163532  -0.543090   0.023309  -0.001607   0.001153
 -2.373230   0.911366   3.948936  -5.650102  -5.916442   1.644003   6.588308   2.169830  -1.043709   2.430938   0.457767  -1.542682   0.705458   0.498732   0.573761  -1.971476   5.325839  -1.396920  -8.112164  11.969612  19.934243   0.276382  33.221615   0.036929  -2.365435  -3.518668   0.942445  -3.872847  -2.164747  -0.307854 -17.765901   1.754799 -16.748609   0.145922 -33.471053  -0.310333  -2.890049   1.560880   3.223900  -6.027452   1.688321  -5.873630  22.156973   0.019349  -0.068279 -11.777784  -1.881599   0.587887   0.365706   0.000538  -0.000899  -4.994643   5.440505   5.363158  19.208463  -0.050895   0.015257 -10.571284   4.656637  -0.636077   0.181404  -0.002497   0.001805
 -2.372584   0.908085   3.946547  -6.086965  -6.461015   1.794851   6.997966   2.334746  -1.092285   2.688703   0.568679  -1.672713   0.779124   0.538960   0.684506  -2.083897   5.957735  -1.470387  -8.840915  13.182638  21.957834   0.284047  37.037468   0.030558  -2.610343  -3.192131   1.477667  -4.120758  -2.457341  -0.553365 -19.463871   2.069310 -18.473168   0.126201 -37.266112  -0.325770  -3.203528   1.317702   3.067797  -7.062193   1.745601  -6.190491  24.634482   0.011563  -0.070168 -12.758254  -2.095683   0.624685   0.377396   0.000437  -0.000811  -5.552813   5.897373   6.342846  20.259405  -0.049265   0.016439 -11.150944   5.117905  -0.717470   0.329352  -0.003128   0.002268
 -2.371686   0.904606   3.944509  -6.516686  -6.887006   1.976635   7.385056   2.455558  -1.128303   2.939826   0.643540  -1.798112   0.846942   0.575873   0.787036  -2.181263   6.545162  -1.539240  -9.557280  14.290152  23.869850   0.287870  40.851671   0.025368  -2.847040  -2.890599   2.000723  -4.347160  -2.749630  -0.797451 -21.031743   2.401927 -20.088670   0.100911 -41.062190  -0.339054  -3.505262   1.085936   2.898123  -8.002503   1.859687  -6.536142  26.998379   0.006163  -0.067323 -13.672650  -2.266995   0.608588   0.391059   0.000363  -0.000731  -6.100763   6.307038   7.276215  21.237171  -0.046948   0.017828 -11.692242   5.548607  -0.789121   0.464242  -0.003502   0.002635
 -2.370554   0.900952   3.942816  -6.936830  -7.223601   2.173498   7.751268   2.550146  -1.147272   3.181987   0.693395  -1.907925   0.909303   0.610426   0.883712  -2.265465   7.089931  -1.606025 -10.256922  15.300142  25.673648   0.288521  44.663834   0.021299  -3.075181  -2.617834   2.505341  -4.555229  -3.036696  -1.027908 -22.480462   2.745965 -21.593197   0.070239 -44.859232  -0.351624  -3.795050   0.862598   2.729792  -8.863701   1.987932  -6.907363  29.254832   0.002652  -0.062605 -14.521874  -2.420740   0.582953   0.403883   0.000307  -0.000650  -6.635154   6.678984   8.175003  22.142724  -0.044159   0.019080 -12.198046   5.951115  -0.852237   0.586537  -0.003679   0.002895
 -2.369073   0.898191   3.941659  -7.126869  -7.548681   2.163065   7.894671   2.521406  -0.941088   3.327508   0.904919  -1.874872   1.062223   0.622775   0.867415  -2.233125   7.500190  -1.912434 -10.743785  16.365767  27.287212   0.289675  48.466915   0.006156  -3.360279  -2.330243   3.147646  -4.568185  -3.229883  -1.214313 -23.913059   3.185267 -23.259385   0.039042 -48.610430  -0.363981  -4.088300   0.623824   2.655431  -9.527530   1.955145  -7.063305  30.631293   0.000292  -0.056167 -14.942440  -2.571947   0.212755   0.511204   0.000677  -0.001131  -7.066571   7.108305   9.099846  22.308967  -0.036254   0.016154 -11.859911   6.289785  -1.004170   0.756465  -0.003825   0.003363
 -2.367263   0.896008   3.940621  -7.162245  -7.942125   2.118394   7.985056   2.508022  -0.711797   3.401526   1.128001  -1.810103   1.198225   0.635783   0.864822  -2.212883   7.879082  -2.282908 -11.228925  17.355488  28.759436   0.286112  52.274561  -0.007052  -3.631166  -2.046862   3.775423  -4.572392  -3.392132  -1.358458 -25.231403   3.637532 -24.793718   0.007296 -52.120697  -0.368610  -4.370409   0.340768   2.595833 -10.179786   1.928727  -7.190591  31.664173  -0.001035  -0.049909 -15.400336  -2.708153  -0.145350   0.630031   0.001011  -0.001616  -7.486575   7.519666   9.881709  22.368844  -0.029262   0.013161 -11.539958   6.604901  -1.150151   0.964583  -0.003842   0.003692
 -2.365204   0.894253   3.939658  -7.093715  -8.406070   2.057021   8.058543   2.510837  -0.490298   3.440490   1.352270  -1.735711   1.323631   0.648332   0.869116  -2.210788   8.234998  -2.686855 -11.717054  18.275348  30.109729   0.280211  56.086768  -0.019514  -3.889752  -1.758806   4.316255  -4.582144  -3.533857  -1.440501 -26.459072   4.086979 -26.180643  -0.022742 -55.400132  -0.366782  -4.637204   0.052341   2.604100 -10.830327   1.912465  -7.305728  32.465372  -0.001762  -0.044145 -15.874184  -2.831459  -0.486695   0.732707   0.001204  -0.001945  -7.870684   7.911354  10.527276  22.417790  -0.023578   0.010642 -11.242330   6.897413  -1.289610   1.149753  -0.003570   0.003594
 -2.362954   0.892827   3.938770  -6.944587  -8.929088   1.977982   8.122763   2.523831  -0.281940   3.458301   1.572944  -1.656694   1.443248   0.660140   0.875506  -2.223313   8.567563  -3.108695 -12.203694  19.128568  31.353294   0.273777  59.902775  -0.032069  -4.136610  -1.466324   4.773470  -4.601217  -3.657984  -1.462579 -27.608182   4.525731 -27.428885  -0.049410 -58.465012  -0.360020  -4.888021  -0.242782   2.689809 -11.482470   1.901673  -7.403598  33.088550  -0.002108  -0.038840 -16.350356  -2.943577  -0.809752   0.822994   0.001300  -0.002158  -8.207818   8.285251  11.059091  22.473363  -0.019016   0.008560 -10.964555   7.168934  -1.422513   1.315141  -0.003160   0.003247
